<svg width="180" height="111" viewBox="0 0 180 111" fill="none" xmlns="http://www.w3.org/2000/svg">
<path d="M43.5 10.5C53.5 14 113.5 17.5 173 14C173 14 156 23.5 162.5 23.5C169 23.5 180 21 180 21C180 21 162.5 34 154.5 41C146.5 48 141.5 63.5 144 65C146.5 66.5 153 63.5 153 63.5C153 63.5 143.1 70.5 141.5 78.5C139.9 86.5 144 99 144 99C144 99 136 94 131.5 93C127 92 141.5 110.5 141.5 110.5C110.304 98.987 51 87 12.5 83C27 80.5 14.5 80 0 78.5C0 78.5 12.5 67.5 16 61.5C19.5 55.5 25.5 34.5 25.5 28C25.5 21.5 19 0.5 19 0.5C19 0.5 33.5 7 43.5 10.5Z" fill="#393939"/>
</svg>
